<svg version="1.2" baseProfile="tiny-ps" xmlns="http://www.w3.org/2000/svg" viewBox="0 0 120 30" width="120" height="30">
    <title>deltoidHorizontal-svg</title>
    <style>
        tspan { white-space:pre }
        .shp0 { fill: #ffffff }
        .shp1 { fill: #ffffff }
    </style>
    <g id="Layer 1">
        <path id="&lt;Path&gt;" class="shp0" d="M2.59 4.81L17.5 4.81C17.61 4.81 17.68 4.94 17.62 5.03L11.33 14.61C11.31 14.66 11.3 14.71 11.33 14.76L15.47 21.61C15.52 21.7 15.66 21.7 15.71 21.61L22.86 9.31C22.89 9.26 22.89 9.21 22.86 9.16L20.14 5.03C20.08 4.93 20.15 4.81 20.26 4.81L28.24 4.81C28.36 4.81 28.42 4.93 28.36 5.02L15.98 25.13C15.92 25.22 15.79 25.22 15.74 25.13L2.47 5.03C2.4 4.94 2.47 4.81 2.59 4.81Z"/>
        <g id="&lt;Group&gt;">
            <path id="&lt;Compound Path&gt;" fill-rule="evenodd" class="shp1"
                  d="M33 8.48L38.06 8.48C39.07 8.48 40 8.64 40.85 8.97C41.69 9.29 42.42 9.75 43.03 10.33C43.64 10.91 44.12 11.59 44.45 12.38C44.78 13.16 44.95 14.01 44.95 14.92L44.95 14.96C44.95 15.87 44.78 16.73 44.45 17.52C44.12 18.31 43.64 18.99 43.03 19.57C42.42 20.15 41.69 20.61 40.85 20.94C40 21.28 39.07 21.44 38.06 21.44L33 21.44L33 8.48ZM38.06 18.87C38.64 18.87 39.17 18.78 39.65 18.59C40.13 18.41 40.54 18.14 40.88 17.79C41.22 17.45 41.49 17.04 41.68 16.57C41.87 16.1 41.97 15.58 41.97 15L41.97 14.96C41.97 14.39 41.87 13.87 41.68 13.39C41.49 12.9 41.22 12.49 40.88 12.14C40.54 11.8 40.13 11.53 39.65 11.34C39.17 11.15 38.64 11.05 38.06 11.05L35.85 11.05L35.85 18.87L38.06 18.87Z"/>
            <path id="&lt;Compound Path&gt;" class="shp1" d="M47.49 8.48L57.25 8.48L57.25 11.01L50.3 11.01L50.3 13.64L56.42 13.64L56.42 16.18L50.3 16.18L50.3 18.91L57.34 18.91L57.34 21.44L47.49 21.44L47.49 8.48Z"/>
            <path id="&lt;Compound Path&gt;" class="shp1" d="M59.9 8.48L62.75 8.48L62.75 18.87L69.22 18.87L69.22 21.44L59.9 21.44L59.9 8.48Z"/>
            <path id="&lt;Compound Path&gt;" class="shp1" d="M74.39 11.11L70.44 11.11L70.44 8.48L81.19 8.48L81.19 11.11L77.24 11.11L77.24 21.44L74.39 21.44L74.39 11.11Z"/>
            <path id="&lt;Compound Path&gt;" fill-rule="evenodd" class="shp1"
                  d="M89.67 21.67C88.67 21.67 87.75 21.49 86.91 21.14C86.07 20.79 85.35 20.31 84.73 19.71C84.12 19.11 83.65 18.41 83.31 17.6C82.97 16.79 82.8 15.92 82.8 15L82.8 14.96C82.8 14.03 82.97 13.17 83.32 12.36C83.66 11.55 84.14 10.84 84.75 10.23C85.36 9.62 86.09 9.13 86.94 8.78C87.78 8.43 88.71 8.25 89.71 8.25C90.71 8.25 91.63 8.43 92.47 8.78C93.31 9.13 94.03 9.61 94.64 10.21C95.26 10.81 95.73 11.51 96.07 12.32C96.41 13.13 96.58 14 96.58 14.92L96.58 14.96C96.58 15.89 96.41 16.75 96.06 17.56C95.72 18.37 95.24 19.08 94.63 19.69C94.01 20.31 93.29 20.79 92.44 21.14C91.59 21.49 90.67 21.67 89.67 21.67ZM89.71 19.04C90.28 19.04 90.8 18.93 91.28 18.72C91.76 18.51 92.17 18.22 92.51 17.85C92.85 17.48 93.12 17.05 93.31 16.56C93.5 16.07 93.6 15.55 93.6 15L93.6 14.96C93.6 14.41 93.5 13.88 93.31 13.39C93.12 12.89 92.85 12.46 92.5 12.09C92.14 11.72 91.73 11.43 91.25 11.21C90.76 10.99 90.24 10.88 89.67 10.88C89.09 10.88 88.56 10.99 88.09 11.2C87.61 11.41 87.2 11.7 86.86 12.07C86.52 12.44 86.26 12.87 86.07 13.36C85.88 13.85 85.78 14.37 85.78 14.92L85.78 14.96C85.78 15.52 85.88 16.04 86.07 16.54C86.26 17.03 86.53 17.46 86.88 17.83C87.23 18.2 87.65 18.5 88.12 18.71C88.6 18.93 89.13 19.04 89.71 19.04Z"/>
            <path id="&lt;Compound Path&gt;" class="shp1" d="M99.25 8.48L102.1 8.48L102.1 21.44L99.25 21.44L99.25 8.48Z"/>
            <path id="&lt;Compound Path&gt;" fill-rule="evenodd" class="shp1"
                  d="M105.34 8.48L110.4 8.48C111.41 8.48 112.34 8.64 113.19 8.97C114.03 9.29 114.76 9.75 115.37 10.33C115.98 10.91 116.46 11.59 116.79 12.38C117.13 13.16 117.29 14.01 117.29 14.92L117.29 14.96C117.29 15.87 117.13 16.73 116.79 17.52C116.46 18.31 115.98 18.99 115.37 19.57C114.76 20.15 114.03 20.61 113.19 20.94C112.34 21.28 111.41 21.44 110.4 21.44L105.34 21.44L105.34 8.48ZM110.4 18.87C110.98 18.87 111.51 18.78 111.99 18.59C112.48 18.41 112.88 18.14 113.23 17.79C113.57 17.45 113.83 17.04 114.02 16.57C114.21 16.1 114.31 15.58 114.31 15L114.31 14.96C114.31 14.39 114.21 13.87 114.02 13.39C113.83 12.9 113.57 12.49 113.23 12.14C112.88 11.8 112.48 11.53 111.99 11.34C111.51 11.15 110.98 11.05 110.4 11.05L108.2 11.05L108.2 18.87L110.4 18.87Z"/>
        </g>
    </g>
</svg>