<svg version="1.2" baseProfile="tiny-ps" xmlns="http://www.w3.org/2000/svg" viewBox="0 0 1190 1190" width="512" height="512">
	<title>DELTOID_bi_3-ai</title>
	<style>
		tspan { white-space:pre }
		.shp0 { fill: #0d0d0d } 
		.shp1 { fill: #6633cc } 
	</style>
	<g id="Layer 1">
		<g id="&lt;Group&gt;">
			<path id="&lt;Compound Path&gt;" fill-rule="evenodd" class="shp0" d="M177.01 818.77L227.59 818.77C237.71 818.77 247 820.4 255.47 823.67C263.92 826.95 271.21 831.49 277.33 837.29C283.44 843.1 288.16 849.92 291.5 857.76C294.83 865.6 296.5 874.09 296.5 883.23L296.5 883.6C296.5 892.74 294.83 901.27 291.5 909.17C288.16 917.07 283.44 923.93 277.33 929.73C271.21 935.54 263.92 940.11 255.47 943.44C247 946.77 237.71 948.44 227.59 948.44L177.01 948.44L177.01 818.77ZM227.59 922.69C233.39 922.69 238.7 921.77 243.52 919.91C248.33 918.06 252.44 915.4 255.84 911.95C259.23 908.49 261.89 904.42 263.8 899.72C265.72 895.03 266.67 889.78 266.67 883.98L266.67 883.6C266.67 877.92 265.72 872.67 263.8 867.86C261.89 863.04 259.23 858.9 255.84 855.44C252.44 851.99 248.33 849.3 243.52 847.39C238.7 845.47 233.39 844.51 227.59 844.51L205.54 844.51L205.54 922.69L227.59 922.69Z" />
			<path id="&lt;Compound Path&gt;" class="shp0" d="M321.88 818.77L419.51 818.77L419.51 844.14L350.04 844.14L350.04 870.45L411.17 870.45L411.17 895.83L350.04 895.83L350.04 923.06L420.43 923.06L420.43 948.44L321.88 948.44L321.88 818.77Z" />
			<path id="&lt;Compound Path&gt;" class="shp0" d="M446 818.77L474.53 818.77L474.53 922.69L539.18 922.69L539.18 948.44L446 948.44L446 818.77Z" />
			<path id="&lt;Compound Path&gt;" class="shp0" d="M590.87 845.07L551.41 845.07L551.41 818.77L658.86 818.77L658.86 845.07L619.4 845.07L619.4 948.44L590.87 948.44L590.87 845.07Z" />
			<path id="&lt;Compound Path&gt;" fill-rule="evenodd" class="shp0" d="M743.7 950.66C733.7 950.66 724.5 948.91 716.1 945.39C707.7 941.87 700.45 937.11 694.33 931.12C688.22 925.13 683.46 918.09 680.07 910C676.67 901.92 674.97 893.24 674.97 883.98L674.97 883.6C674.97 874.34 676.7 865.66 680.16 857.58C683.61 849.49 688.4 842.39 694.52 836.27C700.63 830.16 707.92 825.34 716.38 821.82C724.84 818.3 734.07 816.54 744.07 816.54C754.08 816.54 763.27 818.3 771.67 821.82C780.07 825.34 787.33 830.1 793.44 836.09C799.56 842.08 804.31 849.12 807.71 857.21C811.1 865.3 812.8 873.97 812.8 883.23L812.8 883.6C812.8 892.87 811.07 901.54 807.61 909.63C804.15 917.72 799.37 924.82 793.26 930.94C787.14 937.05 779.85 941.87 771.4 945.39C762.94 948.91 753.7 950.66 743.7 950.66ZM744.07 924.36C749.75 924.36 755 923.31 759.82 921.21C764.63 919.11 768.74 916.21 772.14 912.5C775.53 908.8 778.19 904.51 780.1 899.63C782.02 894.75 782.98 889.53 782.98 883.98L782.98 883.6C782.98 878.05 782.02 872.8 780.1 867.86C778.19 862.92 775.47 858.59 771.95 854.89C768.43 851.18 764.27 848.25 759.45 846.09C754.63 843.93 749.38 842.85 743.7 842.85C737.89 842.85 732.61 843.9 727.86 846C723.11 848.1 719.03 851 715.64 854.7C712.24 858.41 709.58 862.7 707.67 867.58C705.75 872.46 704.8 877.68 704.8 883.23L704.8 883.6C704.8 889.16 705.75 894.41 707.67 899.35C709.58 904.29 712.3 908.61 715.82 912.32C719.34 916.02 723.48 918.96 728.23 921.12C732.99 923.28 738.27 924.36 744.07 924.36Z" />
			<path id="&lt;Compound Path&gt;" class="shp0" d="M839.48 818.77L868.01 818.77L868.01 948.44L839.48 948.44L839.48 818.77Z" />
			<path id="&lt;Compound Path&gt;" fill-rule="evenodd" class="shp0" d="M900.43 818.77L951 818.77C961.13 818.77 970.42 820.4 978.88 823.67C987.34 826.95 994.63 831.49 1000.74 837.29C1006.85 843.1 1011.58 849.92 1014.91 857.76C1018.25 865.6 1019.92 874.09 1019.92 883.23L1019.92 883.6C1019.92 892.74 1018.25 901.27 1014.91 909.17C1011.58 917.07 1006.85 923.93 1000.74 929.73C994.63 935.54 987.34 940.11 978.88 943.44C970.42 946.77 961.13 948.44 951 948.44L900.43 948.44L900.43 818.77ZM951 922.69C956.81 922.69 962.11 921.77 966.93 919.91C971.75 918.06 975.85 915.4 979.25 911.95C982.65 908.49 985.3 904.42 987.22 899.72C989.13 895.03 990.09 889.78 990.09 883.98L990.09 883.6C990.09 877.92 989.13 872.67 987.22 867.86C985.3 863.04 982.65 858.9 979.25 855.44C975.85 851.99 971.75 849.3 966.93 847.39C962.11 845.47 956.81 844.51 951 844.51L928.95 844.51L928.95 922.69L951 922.69Z" />
		</g>
		<path id="&lt;Path&gt;" class="shp1" d="M257.42 186.81L639.9 186.81C642.79 186.81 644.52 190.02 642.94 192.43L481.75 438C480.99 439.16 480.96 440.67 481.68 441.86L587.76 617.41C589.19 619.77 592.62 619.74 594 617.36L777.4 302.14C778.1 300.93 778.05 299.43 777.26 298.28L707.63 192.33C705.99 189.92 707.72 186.66 710.63 186.66L915.35 186.66C918.18 186.66 919.92 189.77 918.44 192.19L600.75 707.69C599.36 709.96 596.09 710.01 594.63 707.79L254.39 192.44C252.8 190.03 254.53 186.81 257.42 186.81Z" />
	</g>
</svg>