<svg version="1.2" baseProfile="tiny-ps" xmlns="http://www.w3.org/2000/svg" viewBox="0 0 900 200" width="900" height="200">
	<title>DELTOID_bi_3-ai</title>
	<style>
		tspan { white-space:pre }
		.shp0 { fill: #6633cc }
	</style>
	<g id="&lt;Group&gt;">
		<path id="&lt;Compound Path&gt;" fill-rule="evenodd" class="shp0" d="M29.01 34.77L79.59 34.77C89.71 34.77 99 36.4 107.47 39.67C115.92 42.95 123.21 47.49 129.33 53.29C135.44 59.1 140.16 65.92 143.5 73.76C146.83 81.6 148.5 90.09 148.5 99.23L148.5 99.6C148.5 108.74 146.83 117.27 143.5 125.17C140.16 133.07 135.44 139.93 129.33 145.73C123.21 151.54 115.92 156.11 107.47 159.44C99 162.77 89.71 164.44 79.59 164.44L29.01 164.44L29.01 34.77ZM79.59 138.69C85.39 138.69 90.7 137.77 95.52 135.91C100.33 134.06 104.44 131.4 107.84 127.95C111.23 124.49 113.89 120.42 115.8 115.72C117.72 111.03 118.67 105.78 118.67 99.98L118.67 99.6C118.67 93.92 117.72 88.67 115.8 83.86C113.89 79.04 111.23 74.9 107.84 71.44C104.44 67.99 100.33 65.3 95.52 63.39C90.7 61.47 85.39 60.51 79.59 60.51L57.54 60.51L57.54 138.69L79.59 138.69Z" />
		<path id="&lt;Compound Path&gt;" class="shp0" d="M173.88 34.77L271.51 34.77L271.51 60.14L202.04 60.14L202.04 86.45L263.17 86.45L263.17 111.83L202.04 111.83L202.04 139.06L272.43 139.06L272.43 164.44L173.88 164.44L173.88 34.77Z" />
		<path id="&lt;Compound Path&gt;" class="shp0" d="M298 34.77L326.53 34.77L326.53 138.69L391.18 138.69L391.18 164.44L298 164.44L298 34.77Z" />
		<path id="&lt;Compound Path&gt;" class="shp0" d="M442.87 61.07L403.41 61.07L403.41 34.77L510.86 34.77L510.86 61.07L471.4 61.07L471.4 164.44L442.87 164.44L442.87 61.07Z" />
		<path id="&lt;Compound Path&gt;" fill-rule="evenodd" class="shp0" d="M595.7 166.66C585.7 166.66 576.5 164.91 568.1 161.39C559.7 157.87 552.45 153.11 546.33 147.12C540.22 141.13 535.46 134.09 532.07 126C528.67 117.92 526.97 109.24 526.97 99.98L526.97 99.6C526.97 90.34 528.7 81.66 532.16 73.58C535.61 65.49 540.4 58.39 546.52 52.27C552.63 46.16 559.92 41.34 568.38 37.82C576.84 34.3 586.07 32.54 596.07 32.54C606.08 32.54 615.27 34.3 623.67 37.82C632.07 41.34 639.33 46.1 645.44 52.09C651.56 58.08 656.31 65.12 659.71 73.21C663.1 81.3 664.8 89.97 664.8 99.23L664.8 99.6C664.8 108.87 663.07 117.54 659.61 125.63C656.15 133.72 651.37 140.82 645.26 146.94C639.14 153.05 631.85 157.87 623.4 161.39C614.94 164.91 605.7 166.66 595.7 166.66ZM596.07 140.36C601.75 140.36 607 139.31 611.82 137.21C616.63 135.11 620.74 132.21 624.14 128.5C627.53 124.8 630.19 120.51 632.1 115.63C634.02 110.75 634.98 105.53 634.98 99.98L634.98 99.6C634.98 94.05 634.02 88.8 632.1 83.86C630.19 78.92 627.47 74.59 623.95 70.89C620.43 67.18 616.27 64.25 611.45 62.09C606.63 59.93 601.38 58.85 595.7 58.85C589.89 58.85 584.61 59.9 579.86 62C575.11 64.1 571.03 67 567.64 70.7C564.24 74.41 561.58 78.7 559.67 83.58C557.75 88.46 556.8 93.68 556.8 99.23L556.8 99.6C556.8 105.16 557.75 110.41 559.67 115.35C561.58 120.29 564.3 124.61 567.82 128.32C571.34 132.02 575.48 134.96 580.23 137.12C584.99 139.28 590.27 140.36 596.07 140.36Z" />
		<path id="&lt;Compound Path&gt;" class="shp0" d="M691.48 34.77L720.01 34.77L720.01 164.44L691.48 164.44L691.48 34.77Z" />
		<path id="&lt;Compound Path&gt;" fill-rule="evenodd" class="shp0" d="M752.43 34.77L803 34.77C813.13 34.77 822.42 36.4 830.88 39.67C839.34 42.95 846.63 47.49 852.74 53.29C858.85 59.1 863.58 65.92 866.91 73.76C870.25 81.6 871.92 90.09 871.92 99.23L871.92 99.6C871.92 108.74 870.25 117.27 866.91 125.17C863.58 133.07 858.85 139.93 852.74 145.73C846.63 151.54 839.34 156.11 830.88 159.44C822.42 162.77 813.13 164.44 803 164.44L752.43 164.44L752.43 34.77ZM803 138.69C808.81 138.69 814.11 137.77 818.93 135.91C823.75 134.06 827.85 131.4 831.25 127.95C834.65 124.49 837.3 120.42 839.22 115.72C841.13 111.03 842.09 105.78 842.09 99.98L842.09 99.6C842.09 93.92 841.13 88.67 839.22 83.86C837.3 79.04 834.65 74.9 831.25 71.44C827.85 67.99 823.75 65.3 818.93 63.39C814.11 61.47 808.81 60.51 803 60.51L780.95 60.51L780.95 138.69L803 138.69Z" />
	</g>
</svg>