<svg id="레이어_1" data-name="레이어 1" xmlns="http://www.w3.org/2000/svg" viewBox="0 0 635.74 166.98"><defs><style>.cls-1{fill:#fff;}</style></defs><title>델토이드 로고</title><path class="cls-1" d="M188.55,30.51H214A38.61,38.61,0,0,1,228,33a33.05,33.05,0,0,1,11,6.85,30.3,30.3,0,0,1,7.13,10.29,32.47,32.47,0,0,1,2.51,12.8v.19A32.86,32.86,0,0,1,246.1,76,30.26,30.26,0,0,1,239,86.29a33.65,33.65,0,0,1-11,6.9,38,38,0,0,1-14,2.51H188.55ZM214,82.76a22.16,22.16,0,0,0,8-1.4,17.21,17.21,0,0,0,6.19-4,18.59,18.59,0,0,0,4-6.14,20.66,20.66,0,0,0,1.45-7.92v-.18a21.09,21.09,0,0,0-1.45-7.92,18.52,18.52,0,0,0-4-6.24A17.7,17.7,0,0,0,222,44.9a21.54,21.54,0,0,0-8-1.44H202.89v39.3Z"/><polygon class="cls-1" points="261.37 30.51 310.44 30.51 310.44 43.27 275.52 43.27 275.52 56.49 306.25 56.49 306.25 69.25 275.52 69.25 275.52 82.94 310.91 82.94 310.91 95.7 261.37 95.7 261.37 30.51"/><polygon class="cls-1" points="323.76 30.51 338.1 30.51 338.1 82.76 370.6 82.76 370.6 95.7 323.76 95.7 323.76 30.51"/><polygon class="cls-1" points="396.58 43.74 376.75 43.74 376.75 30.51 430.76 30.51 430.76 43.74 410.92 43.74 410.92 95.7 396.58 95.7 396.58 43.74"/><path class="cls-1" d="M473.41,96.82a35.58,35.58,0,0,1-13.88-2.66A34.62,34.62,0,0,1,448.59,87a32.2,32.2,0,0,1-7.17-10.61,33.43,33.43,0,0,1-2.56-13.09v-.18A32.93,32.93,0,0,1,441.47,50a33.36,33.36,0,0,1,18.2-18A35.93,35.93,0,0,1,473.6,29.4a35.53,35.53,0,0,1,13.87,2.65,34.51,34.51,0,0,1,10.94,7.17,32,32,0,0,1,7.17,10.62,33.35,33.35,0,0,1,2.56,13.08v.19a33.05,33.05,0,0,1-2.6,13.08,33.33,33.33,0,0,1-18.21,18,35.85,35.85,0,0,1-13.92,2.66m.19-13.23A19.5,19.5,0,0,0,481.51,82a17.86,17.86,0,0,0,6.19-4.38,20.61,20.61,0,0,0,4-6.47,21.37,21.37,0,0,0,1.44-7.87v-.18a21.75,21.75,0,0,0-1.44-7.92,19.92,19.92,0,0,0-4.1-6.52,19.7,19.7,0,0,0-6.29-4.42,19,19,0,0,0-7.91-1.63,19.57,19.57,0,0,0-8,1.58,18.36,18.36,0,0,0-6.15,4.38,20.52,20.52,0,0,0-4,6.47,21.21,21.21,0,0,0-1.45,7.87v.19A21.53,21.53,0,0,0,455.3,71,19.59,19.59,0,0,0,465.63,82a19,19,0,0,0,8,1.63"/><rect class="cls-1" x="521.55" y="30.51" width="14.34" height="65.19"/><path class="cls-1" d="M552.19,30.51h25.42a38.66,38.66,0,0,1,14,2.47,33.25,33.25,0,0,1,11,6.85,30.41,30.41,0,0,1,7.12,10.29,32.3,32.3,0,0,1,2.52,12.8v.19A32.69,32.69,0,0,1,609.74,76a30.38,30.38,0,0,1-7.12,10.33,33.87,33.87,0,0,1-11,6.9,38,38,0,0,1-14,2.51H552.19Zm25.42,52.25a22.16,22.16,0,0,0,8-1.4,17.12,17.12,0,0,0,6.19-4,18.77,18.77,0,0,0,4-6.14,20.85,20.85,0,0,0,1.44-7.92v-.18a21.29,21.29,0,0,0-1.44-7.92,18.7,18.7,0,0,0-4-6.24,17.61,17.61,0,0,0-6.19-4.05,21.54,21.54,0,0,0-8-1.44H566.53v39.3Z"/><path class="cls-1" d="M23,30.55h78.33a.74.74,0,0,1,.63,1.15L68.9,82a.75.75,0,0,0,0,.79l21.72,36a.75.75,0,0,0,1.28,0l37.56-64.56a.73.73,0,0,0,0-.79l-14.26-21.7a.74.74,0,0,1,.61-1.17h41.93a.75.75,0,0,1,.63,1.14L93.27,137.23a.74.74,0,0,1-1.25,0L22.34,31.7A.74.74,0,0,1,23,30.55"/><path class="cls-1" d="M192.83,131.07l.39,2.45.58-2.21,4-13h2.28l3.95,13,.56,2.25.44-2.5,3.17-12.7H211l-5,18.57h-2.46l-4.22-13.54L199,122l-.33,1.41-4.37,13.54h-2.46l-5-18.57h2.7Z"/><path class="cls-1" d="M248.69,128.24a10.47,10.47,0,0,1-1,4.76,7.1,7.1,0,0,1-2.87,3.11,8.53,8.53,0,0,1-4.33,1.07,8.38,8.38,0,0,1-4.28-1.08,7.23,7.23,0,0,1-2.9-3.07,10.15,10.15,0,0,1-1.07-4.62v-1.34a10.49,10.49,0,0,1,1-4.73,7.32,7.32,0,0,1,2.9-3.15,9.12,9.12,0,0,1,8.63,0,7.17,7.17,0,0,1,2.89,3.12,10.6,10.6,0,0,1,1,4.77ZM246,127a7.79,7.79,0,0,0-1.46-5.07,5,5,0,0,0-4.09-1.76,5,5,0,0,0-4,1.76,7.65,7.65,0,0,0-1.51,4.91v1.36a7.75,7.75,0,0,0,1.48,5,5.53,5.53,0,0,0,8.13.1,7.71,7.71,0,0,0,1.48-5Z"/><path class="cls-1" d="M279.25,129.41h-4.81v7.52h-2.71V118.36h6.77a8.53,8.53,0,0,1,5.32,1.43,4.9,4.9,0,0,1,1.86,4.15,4.69,4.69,0,0,1-1,3,6.21,6.21,0,0,1-2.87,1.92l4.8,7.88v.16h-2.89Zm-4.81-2h4.15a5,5,0,0,0,3.19-.94,3.06,3.06,0,0,0,1.19-2.53,3.24,3.24,0,0,0-1.13-2.65,5.14,5.14,0,0,0-3.27-.93h-4.13Z"/><path class="cls-1" d="M313.67,128.29l-2.51,2.36v6.28h-2.7V118.36h2.7v9.18l9.1-9.18h3.26l-8.06,8.2,8.69,10.37h-3.23Z"/><path class="cls-1" d="M360.82,128.24a10.6,10.6,0,0,1-1,4.76,7.16,7.16,0,0,1-2.87,3.11,8.56,8.56,0,0,1-4.33,1.07,8.44,8.44,0,0,1-4.29-1.08,7.35,7.35,0,0,1-2.9-3.07,10.15,10.15,0,0,1-1.06-4.62v-1.34a10.48,10.48,0,0,1,1-4.73,7.41,7.41,0,0,1,2.91-3.15,8.44,8.44,0,0,1,4.29-1.09,8.55,8.55,0,0,1,4.34,1.08,7.23,7.23,0,0,1,2.89,3.12,10.73,10.73,0,0,1,1,4.77Zm-2.69-1.2a7.74,7.74,0,0,0-1.46-5.07,5.56,5.56,0,0,0-8.12,0,7.71,7.71,0,0,0-1.51,4.91v1.36a7.75,7.75,0,0,0,1.49,5,5.53,5.53,0,0,0,8.13.1,7.7,7.7,0,0,0,1.47-5Z"/><path class="cls-1" d="M398.27,118.36V131a5.62,5.62,0,0,1-1.82,4.3,7.74,7.74,0,0,1-4.9,1.88l-.71,0a8.21,8.21,0,0,1-5.36-1.64,5.64,5.64,0,0,1-2-4.53V118.36h2.67v12.57a4,4,0,0,0,1.22,3.13,6,6,0,0,0,7,0,4,4,0,0,0,1.22-3.12V118.36Z"/><path class="cls-1" d="M435.67,120.36h-6.58v16.57h-2.68V120.36h-6.57v-2h15.83Z"/><path class="cls-1" d="M499,136.93h-2.72L486,122.62v14.31h-2.71V118.36H486l10.33,14.37V118.36H499Z"/><path class="cls-1" d="M538.53,128.24a10.6,10.6,0,0,1-1,4.76,7.1,7.1,0,0,1-2.87,3.11,8.53,8.53,0,0,1-4.33,1.07A8.38,8.38,0,0,1,526,136.1a7.32,7.32,0,0,1-2.91-3.07,10.15,10.15,0,0,1-1.06-4.62v-1.34a10.36,10.36,0,0,1,1-4.73,7.32,7.32,0,0,1,2.9-3.15,9.12,9.12,0,0,1,8.63,0,7.17,7.17,0,0,1,2.89,3.12,10.73,10.73,0,0,1,1,4.77Zm-2.68-1.2a7.79,7.79,0,0,0-1.46-5.07,5,5,0,0,0-4.09-1.76,5,5,0,0,0-4,1.76,7.65,7.65,0,0,0-1.51,4.91v1.36a7.75,7.75,0,0,0,1.48,5,5.53,5.53,0,0,0,8.13.1,7.71,7.71,0,0,0,1.48-5Z"/><path class="cls-1" d="M575.34,120.36h-6.58v16.57h-2.68V120.36h-6.57v-2h15.83Z"/><path class="cls-1" d="M608.94,128.34h-8.87v6.58h10.31v2h-13V118.36h12.86v2H600.07v6h8.87Z"/></svg>