<svg id="레이어_1" data-name="레이어 1" xmlns="http://www.w3.org/2000/svg" viewBox="0 0 170.08 170.08"><defs><style>.cls-1{fill:#fff;}</style></defs><title>어플 아이콘_W</title><path class="cls-1" d="M80.83,49.25c-3.71,3-2.92,9.23,1.47,9.23s12.15-5.74,12.15-10-10.13-10.24-16-10.24C65.75,38.22,36,73.11,36,97.65c0,11.48-2.58,12-1.8,15.75,1.54,7.52,31.85,18.46,58.64,18.46S136,123.76,136,115.32V86.5c0-5-5-12-13.23-12s-18.55,5.24-23.44,14.3c3.49,3.27,4.39,5.14,4.7,7-5.57-3.54-8.22-7.69-16.66-7.69-11.14,0-19.53,15.69-26.39,18,6.3-7.65,8.5-10,9.17-13.84,1.3-7.32-5-20.26-1.07-26.57.17,3.94,4.11,4.62,10.24,4.62S95,61.29,95,58.31s-.73-3.3-.73-3.3-5.85,6.28-11.65,6.28S75.67,57,75.67,55.41C75.67,52.51,77.35,51.22,80.83,49.25Z"/></svg>