<svg id="레이어_1" data-name="레이어 1" xmlns="http://www.w3.org/2000/svg" viewBox="0 0 170.08 170.08"><defs><style>.cls-1{fill:#fff;}</style></defs><title>어플 아이콘_W</title><path class="cls-1" d="M130,97.44c-4.57-3.06-8-7.48-8-12.4s3.39-9.34,8-12.41a4.35,4.35,0,0,0,1.71-5.11,50,50,0,0,0-8.18-14.12,4.33,4.33,0,0,0-5.27-1.07c-4.93,2.42-10.45,3.14-14.71.68s-6.41-7.65-6.77-13.17a4.29,4.29,0,0,0-3.55-4,49.42,49.42,0,0,0-16.34,0,4.29,4.29,0,0,0-3.55,4C73,45.36,70.83,50.54,66.55,53s-9.78,1.74-14.72-.68a4.33,4.33,0,0,0-5.27,1.07,49.92,49.92,0,0,0-8.17,14.12,4.35,4.35,0,0,0,1.71,5.11c4.57,3.07,8,7.49,8,12.41s-3.39,9.34-8,12.4a4.36,4.36,0,0,0-1.71,5.11,49.83,49.83,0,0,0,8.17,14.13,4.35,4.35,0,0,0,5.27,1.07c4.94-2.42,10.46-3.14,14.72-.68s6.41,7.65,6.77,13.16a4.29,4.29,0,0,0,3.55,4,49.42,49.42,0,0,0,16.34,0,4.29,4.29,0,0,0,3.55-4c.36-5.51,2.49-10.69,6.77-13.16s9.78-1.74,14.71.68a4.34,4.34,0,0,0,5.27-1.07,49.86,49.86,0,0,0,8.18-14.13A4.36,4.36,0,0,0,130,97.44ZM85,101.79A16.75,16.75,0,1,1,101.79,85,16.75,16.75,0,0,1,85,101.79Z"/></svg>