<svg id="레이어_1" data-name="레이어 1" xmlns="http://www.w3.org/2000/svg" viewBox="0 0 170.08 170.08"><defs><style>.cls-1{fill:#fff;}</style></defs><title>어플 아이콘_W</title><rect class="cls-1" x="29.33" y="105.75" width="30.91" height="40.01"/><rect class="cls-1" x="69.58" y="74.42" width="30.91" height="71.34"/><rect class="cls-1" x="109.83" y="86.11" width="30.91" height="59.65"/><path class="cls-1" d="M125.29,35.53a14,14,0,0,0-12.41,7.59L99,39.2c0-.28.08-.54.08-.82A14.06,14.06,0,1,0,72,43.62L54.55,55.51a14,14,0,1,0,3.22,4.7L75.16,48.37A14,14,0,0,0,97.53,44.7l13.79,3.9c0,.34-.1.66-.1,1a14.07,14.07,0,1,0,14.07-14.07ZM44.79,74a8.37,8.37,0,1,1,8.36-8.37A8.37,8.37,0,0,1,44.79,74ZM85,46.75a8.37,8.37,0,1,1,8.37-8.37A8.38,8.38,0,0,1,85,46.75ZM125.29,58a8.37,8.37,0,1,1,8.36-8.36A8.38,8.38,0,0,1,125.29,58Z"/></svg>